<svg width="299" height="312" viewBox="0 0 299 312" fill="none" xmlns="http://www.w3.org/2000/svg">
<path d="M121.63 0.28067C84.7293 4.56563 57.7715 35.3508 57.7715 73.2082C57.7715 76.3283 57.9795 80.2805 58.1875 81.9861L58.6451 85.1063L56.565 87.8104C54.0689 91.1385 52.9873 93.9674 52.3633 98.6684C51.9889 101.372 51.9889 103.12 52.3633 105.865C54.0689 118.679 62.2644 127.581 73.6633 129.079C75.5353 129.329 75.6186 129.412 76.2426 131.242C76.617 132.324 76.9082 133.406 76.9082 133.655C76.9082 133.905 75.9098 134.529 74.7449 135.028C67.6311 137.982 60.9748 144.43 57.3139 152.002C54.7762 157.243 53.9441 161.029 53.9025 167.353C53.8609 173.468 54.4434 176.422 56.8146 182.038C57.6051 183.952 58.2291 185.532 58.1459 185.616C58.0627 185.657 56.3986 186.364 54.4434 187.113C41.7965 192.147 29.524 200.717 22.327 209.62C10.3457 224.43 5.22871 240.904 1.98379 275.517C1.48457 280.758 1.06855 288.371 1.02695 292.365L0.985352 299.646L2.3166 302.391C3.93906 305.678 6.93437 308.631 10.2625 310.171L12.6338 311.294H130.158H247.683L250.012 310.129C253.673 308.34 255.961 306.052 257.75 302.433L259.331 299.271L259.289 293.405C259.206 288.621 257.293 265.782 256.377 259.209L256.128 257.462L267.485 257.337C278.135 257.212 279.009 257.17 280.839 256.297C283.46 255.09 286.414 252.303 287.745 249.724L288.868 247.644L288.993 222.974L289.118 198.346H291.614C294.776 198.346 296.731 197.514 297.812 195.766C299.061 193.728 299.269 192.022 298.437 190.317C298.062 189.485 293.902 185.283 288.119 179.958C282.794 175.049 274.432 167.269 269.523 162.735C239.57 134.945 241.858 136.775 236.658 136.775C234.37 136.775 233.455 136.983 231.749 137.899C230.335 138.647 222.805 145.553 209.95 157.784C199.134 168.06 189.108 177.587 187.735 178.918L185.155 181.331L181.786 180.457C174.214 178.543 171.053 176.505 168.889 172.178C167.267 168.975 166.892 167.561 166.144 162.86L165.561 158.783L170.678 153.707C177.584 146.801 181.869 140.187 184.573 131.991C185.28 129.911 185.613 129.454 186.612 129.204C192.269 127.873 193.684 127.332 195.972 125.876C201.214 122.464 204.875 117.597 207.038 111.066C207.953 108.278 208.12 107.155 208.12 102.454C208.12 97.8779 207.995 96.6299 207.163 94.3418C206.123 91.3049 204.292 88.2264 202.462 86.4375L201.255 85.2311L201.754 81.5701C202.337 77.2436 202.004 67.592 201.089 62.1422C199.175 50.6602 194.433 39.1781 187.693 29.5682C183.783 24.0768 176.71 16.9213 171.344 13.1356C163.523 7.60255 152.914 3.15117 142.805 1.1543C137.771 0.155859 126.705 -0.301752 121.63 0.28067ZM135.566 37.3893C142.68 51.4922 157.948 65.8863 175.171 74.7891L179.622 77.0772L179.747 84.4822L179.872 91.9289L181.037 92.9274C182.659 94.3418 184.989 94.3002 186.362 92.8441C188.733 90.3065 192.685 89.4744 195.639 90.8889C196.429 91.2633 197.636 92.3449 198.302 93.2602C202.919 99.6668 201.089 111.357 194.599 117.389C191.479 120.301 189.191 121.3 184.823 121.757C182.451 122.007 181.037 122.34 180.496 122.839C180.038 123.255 179.123 125.335 178.416 127.498C175.629 136.193 171.885 142.392 165.852 148.257C155.618 158.2 144.136 162.984 130.491 162.984C122.836 162.984 116.721 161.57 109.524 158.2C101.412 154.414 94.1729 148.216 89.3887 140.894C86.1854 136.027 85.3117 134.321 83.398 129.079C80.8187 122.132 80.7771 122.048 75.4937 121.674C68.1719 121.133 62.8053 116.349 60.4756 108.32C59.3939 104.617 59.7268 98.2107 61.1828 95.1322C63.6373 89.8072 68.8791 88.6008 73.3305 92.2617C75.785 94.3002 77.865 94.5082 79.6955 92.9274L80.8604 91.9289L81.0684 84.5238L81.2764 77.1604L83.5229 76.4115C86.6846 75.3299 95.0881 71.1281 100.122 68.1328C112.353 60.8526 124.5 49.4953 131.406 38.8453C132.862 36.6405 134.069 34.8516 134.152 34.8516C134.235 34.8516 134.859 35.9748 135.566 37.3893ZM240.818 145.595C242.191 146.801 253.964 157.701 266.986 169.849L290.657 191.897L287.87 192.105C284.625 192.355 282.919 193.27 282.586 194.976C282.461 195.642 282.295 207.207 282.254 220.644C282.212 248.309 282.337 247.228 278.967 249.432L277.261 250.556L237.781 250.68L198.26 250.764L196.429 249.89C195.348 249.349 194.141 248.351 193.517 247.394L192.436 245.771L192.269 220.519C192.02 190.483 192.436 192.646 186.82 192.147L184.24 191.897L193.892 182.704C199.217 177.628 210.324 167.103 218.562 159.24C226.799 151.419 234.12 144.638 234.786 144.222C236.866 142.932 238.031 143.182 240.818 145.595ZM105.821 164.648C121.921 172.345 139.976 172.262 155.535 164.482C157.158 163.65 158.572 162.984 158.614 162.984C158.697 162.984 158.905 163.858 159.03 164.94C159.987 171.554 162.732 177.67 166.06 180.707L168.182 182.579L167.017 186.198C162.649 199.677 153.663 208.954 141.183 212.74C137.771 213.78 136.814 213.905 130.782 213.905C125.707 213.946 123.502 213.738 121.505 213.197C112.519 210.743 105.78 206.375 100.163 199.261C97.3346 195.725 94.0064 189.318 92.9248 185.283L92.1344 182.412L93.1328 181.747C95.2545 180.332 97.7506 177.42 98.9986 175.007C100.455 172.095 101.869 166.937 101.869 164.565C101.869 163.692 101.994 162.984 102.119 162.984C102.244 162.984 103.908 163.733 105.821 164.648ZM85.9773 186.947C88.3486 197.014 96.6273 208.33 106.196 214.487C111.313 217.774 118.759 220.519 124.251 221.06L126.83 221.351V263.078V304.846H86.4766H46.123V278.803V252.761L44.9166 251.554C43.4605 250.14 41.7133 249.973 40.2572 251.138L39.2588 251.929L39.134 278.387L39.0508 304.846H27.0695C15.3795 304.846 15.0883 304.804 13.0498 303.847C10.5121 302.682 9.43047 301.518 8.22402 298.813C7.39199 296.941 7.35039 296.359 7.6 291.616C8.22402 279.594 10.5537 259.958 12.4258 250.348C17.834 223.015 28.1096 208.288 49.4512 197.347C56.3986 193.811 62.0148 191.44 69.4199 189.11C75.7018 187.072 83.9389 184.7 84.8125 184.659C85.2701 184.617 85.6029 185.324 85.9773 186.947ZM177.126 186.531L179.331 187.155L178.042 188.445C177.334 189.152 176.544 190.4 176.294 191.273C175.878 192.688 175.92 193.104 176.794 194.893C178.042 197.389 179.789 198.346 183.075 198.346H185.447L185.571 222.974L185.696 247.644L186.695 249.516C188.9 253.676 191.104 255.589 195.057 256.754C196.97 257.337 200.798 257.42 223.346 257.42H249.388L249.929 262.911C250.179 265.948 250.595 269.942 250.844 271.772C251.635 278.304 252.467 289.703 252.467 293.696C252.467 296.941 252.3 298.148 251.676 299.396C250.595 301.476 247.891 303.847 245.935 304.388C244.854 304.721 226.799 304.846 189.149 304.846H133.902V263.119V221.393L137.605 220.894C146.84 219.646 155.618 214.986 162.691 207.581C167.724 202.298 171.843 195.434 173.923 188.902C174.464 187.238 174.88 185.865 174.921 185.865C174.921 185.865 175.92 186.156 177.126 186.531Z" fill="#2E6A44"/>
<path d="M240.818 145.595C242.191 146.801 253.964 157.701 266.986 169.849L290.657 191.897L287.87 192.105C284.625 192.355 282.919 193.27 282.586 194.976C282.461 195.642 282.295 207.207 282.254 220.644C282.212 248.309 282.337 247.228 278.967 249.432L277.261 250.556L237.781 250.68L198.26 250.764L196.429 249.89C195.348 249.349 194.141 248.351 193.517 247.394L192.436 245.771L192.269 220.519C192.02 190.483 192.436 192.646 186.82 192.147L184.24 191.897L193.892 182.704C199.217 177.628 210.324 167.103 218.562 159.24C226.799 151.419 234.12 144.638 234.786 144.222C236.866 142.932 238.031 143.182 240.818 145.595Z" fill="#A8DEC1"/>
<path d="M177.126 186.531L179.331 187.155L178.042 188.445C177.334 189.152 176.544 190.4 176.294 191.273C175.878 192.688 175.92 193.104 176.794 194.893C178.042 197.389 179.789 198.346 183.075 198.346H185.447L185.571 222.974L185.696 247.644L186.695 249.516C188.9 253.676 191.104 255.589 195.057 256.754C196.97 257.337 200.798 257.42 223.346 257.42H249.388L249.929 262.911C250.179 265.948 250.595 269.942 250.844 271.772C251.635 278.304 252.467 289.703 252.467 293.696C252.467 296.941 252.3 298.148 251.676 299.396C250.595 301.476 247.891 303.847 245.935 304.388C244.854 304.721 226.799 304.846 189.149 304.846H133.902V263.119V221.393L137.605 220.894C146.84 219.646 155.618 214.986 162.691 207.581C167.724 202.298 171.843 195.434 173.923 188.902C174.464 187.238 174.88 185.865 174.921 185.865C174.921 185.865 175.92 186.156 177.126 186.531Z" fill="white"/>
<path d="M85.9773 186.947C88.3486 197.014 96.6273 208.33 106.196 214.487C111.313 217.774 118.759 220.519 124.251 221.06L126.83 221.351V263.078V304.846H86.4766H46.123V278.803V252.761L44.9166 251.554C43.4605 250.14 41.7133 249.973 40.2572 251.138L39.2588 251.929L39.134 278.387L39.0508 304.846H27.0695C15.3795 304.846 15.0883 304.804 13.0498 303.847C10.5121 302.682 9.43047 301.518 8.22402 298.813C7.39199 296.941 7.35039 296.359 7.6 291.616C8.22402 279.594 10.5537 259.958 12.4258 250.348C17.834 223.015 28.1096 208.288 49.4512 197.347C56.3986 193.811 62.0148 191.44 69.4199 189.11C75.7018 187.072 83.9389 184.7 84.8125 184.659C85.2701 184.617 85.6029 185.324 85.9773 186.947Z" fill="white"/>
<path d="M105.821 164.648C121.921 172.345 139.976 172.262 155.535 164.482C157.158 163.65 158.572 162.984 158.614 162.984C158.697 162.984 158.905 163.858 159.03 164.94C159.987 171.554 162.732 177.67 166.06 180.707L168.182 182.579L167.017 186.198C162.649 199.677 153.663 208.954 141.183 212.74C137.771 213.78 136.814 213.905 130.782 213.905C125.707 213.946 123.502 213.738 121.505 213.197C112.519 210.743 105.78 206.375 100.163 199.261C97.3346 195.725 94.0064 189.318 92.9248 185.283L92.1344 182.412L93.1328 181.747C95.2545 180.332 97.7506 177.42 98.9986 175.007C100.455 172.095 101.869 166.937 101.869 164.565C101.869 163.692 101.994 162.984 102.119 162.984C102.244 162.984 103.908 163.733 105.821 164.648Z" fill="white"/>
<path d="M135.566 37.3893C142.68 51.4922 157.948 65.8863 175.171 74.7891L179.622 77.0772L179.747 84.4822L179.872 91.9289L181.037 92.9274C182.659 94.3418 184.989 94.3002 186.362 92.8441C188.733 90.3065 192.685 89.4744 195.639 90.8889C196.429 91.2633 197.636 92.3449 198.302 93.2602C202.919 99.6668 201.089 111.357 194.599 117.389C191.479 120.301 189.191 121.3 184.823 121.757C182.451 122.007 181.037 122.34 180.496 122.839C180.038 123.255 179.123 125.335 178.416 127.498C175.629 136.193 171.885 142.392 165.852 148.257C155.618 158.2 144.136 162.984 130.491 162.984C122.836 162.984 116.721 161.57 109.524 158.2C101.412 154.414 94.1729 148.216 89.3887 140.894C86.1854 136.027 85.3117 134.321 83.398 129.079C80.8187 122.132 80.7771 122.048 75.4937 121.674C68.1719 121.133 62.8053 116.349 60.4756 108.32C59.3939 104.617 59.7268 98.2107 61.1828 95.1322C63.6373 89.8072 68.8791 88.6008 73.3305 92.2617C75.785 94.3002 77.865 94.5082 79.6955 92.9274L80.8604 91.9289L81.0684 84.5238L81.2764 77.1604L83.5229 76.4115C86.6846 75.3299 95.0881 71.1281 100.122 68.1328C112.353 60.8526 124.5 49.4953 131.406 38.8453C132.862 36.6405 134.069 34.8516 134.152 34.8516C134.235 34.8516 134.859 35.9748 135.566 37.3893Z" fill="white"/>
<path d="M108.359 81.8612C105.863 82.6101 103.575 85.9798 103.533 88.9335C103.533 90.972 105.114 93.9257 106.82 95.0489C112.311 98.7099 118.843 94.0505 117.595 87.3526C116.804 82.9845 112.727 80.5716 108.359 81.8612Z" fill="#2E6A44"/>
<path d="M148.546 82.3189C143.804 84.7318 143.346 92.3865 147.797 95.1738C151.999 97.7531 157.199 95.673 158.489 90.9304C160.111 84.7734 154.079 79.49 148.546 82.3189Z" fill="#2E6A44"/>
<path d="M113.726 113.686C112.977 114.394 112.686 115.143 112.686 116.224C112.686 117.555 113.06 118.096 115.639 120.634C124.292 129.121 137.438 129.453 146.508 121.341C150.252 118.013 151.042 115.642 149.087 113.686C147.34 111.898 145.551 112.23 142.597 114.976C141.183 116.266 139.019 117.805 137.688 118.429C135.65 119.386 134.818 119.511 131.198 119.511C127.496 119.511 126.788 119.386 124.667 118.346C123.377 117.722 121.172 116.183 119.799 114.934C116.846 112.314 115.39 111.981 113.726 113.686Z" fill="#2E6A44"/>
<path d="M225.426 197.888C219.934 199.594 216.481 204.128 216.523 209.786C216.523 214.861 217.23 215.902 226.715 224.971C232.165 230.171 235.327 232.875 235.909 232.917C237.407 233 238.905 232.833 239.446 232.501C239.737 232.334 243.481 228.84 247.766 224.763C256.793 216.068 257.459 215.028 257.459 209.952C257.459 207.248 257.293 206.416 256.169 204.253C252.883 197.638 245.27 195.558 239.238 199.635C238.281 200.301 237.282 200.842 237.074 200.842C236.866 200.842 235.785 200.259 234.703 199.594C231.624 197.638 228.296 197.014 225.426 197.888Z" fill="#2E6A44"/>
<path d="M61.5572 230.004C59.3523 230.712 58.3955 231.336 56.2738 233.457C53.3201 236.411 52.28 238.99 52.28 243.275C52.28 247.186 53.3617 249.724 56.2738 252.677C59.6435 256.089 62.4308 257.17 66.9238 256.837C68.6294 256.671 73.996 256.463 78.8634 256.338C87.3917 256.13 87.683 256.089 88.723 255.132C90.0958 253.842 90.1374 252.012 88.8478 250.514C87.891 249.391 87.7662 249.391 83.2316 249.391C80.6523 249.391 78.5722 249.391 78.5722 249.308C78.5722 249.266 78.8634 248.351 79.2378 247.269C80.1531 244.607 79.8619 240.03 78.6138 237.41C75.4937 230.836 68.3798 227.758 61.5572 230.004ZM68.463 236.245C69.8775 236.786 71.7912 238.533 72.5816 240.03C73.4968 241.819 73.3304 245.397 72.2072 247.061C70.7511 249.224 68.7958 250.348 66.4246 250.348C62.6804 250.348 60.2259 248.642 59.2691 245.314C58.6451 243.234 58.7699 241.611 59.7267 239.614C61.0996 236.702 65.3429 235.038 68.463 236.245Z" fill="#2E6A44"/>
</svg>
