<svg width="347" height="424" viewBox="0 0 347 424" fill="none" xmlns="http://www.w3.org/2000/svg">
<g filter="url(#filter0_d_60_446)">
<path d="M322 84C322 110.51 300.51 132 274 132C247.49 132 226 110.51 226 84C226 57.4903 247.49 36 274 36C300.51 36 322 57.4903 322 84Z" fill="#FFDC83"/>
<path d="M322 84C322 110.51 300.51 132 274 132C247.49 132 226 110.51 226 84C226 57.4903 247.49 36 274 36C300.51 36 322 57.4903 322 84Z" fill="url(#paint0_radial_60_446)" fill-opacity="0.2"/>
<path d="M261.333 150H336.333V410H261.333V228L220.675 285.998L185 260.985L261.333 150Z" fill="#FFDC83"/>
<path d="M261.333 150H336.333V410H261.333V228L220.675 285.998L185 260.985L261.333 150Z" fill="url(#paint1_radial_60_446)" fill-opacity="0.2"/>
<path d="M139 54C139 80.5097 117.51 102 91 102C64.4903 102 43 80.5097 43 54C43 27.4903 64.4903 6 91 6C117.51 6 139 27.4903 139 54Z" fill="#2A7E3B"/>
<path d="M139 54C139 80.5097 117.51 102 91 102C64.4903 102 43 80.5097 43 54C43 27.4903 64.4903 6 91 6C117.51 6 139 27.4903 139 54Z" fill="url(#paint2_radial_60_446)" fill-opacity="0.4"/>
<path d="M10 121H91L200.084 208.495L166.452 250.822L166 403C166 406.866 162.866 410 159 410C155.134 410 152 406.866 152 403V239.076L91 189.5V410H10V121Z" fill="#2A7E3B"/>
<path d="M10 121H91L200.084 208.495L166.452 250.822L166 403C166 406.866 162.866 410 159 410C155.134 410 152 406.866 152 403V239.076L91 189.5V410H10V121Z" fill="url(#paint3_radial_60_446)" fill-opacity="0.4"/>
</g>
<defs>
<filter id="filter0_d_60_446" x="0" y="0" width="346.333" height="424" filterUnits="userSpaceOnUse" color-interpolation-filters="sRGB">
<feFlood flood-opacity="0" result="BackgroundImageFix"/>
<feColorMatrix in="SourceAlpha" type="matrix" values="0 0 0 0 0 0 0 0 0 0 0 0 0 0 0 0 0 0 127 0" result="hardAlpha"/>
<feOffset dy="4"/>
<feGaussianBlur stdDeviation="5"/>
<feComposite in2="hardAlpha" operator="out"/>
<feColorMatrix type="matrix" values="0 0 0 0 0 0 0 0 0 0 0 0 0 0 0 0 0 0 0.25 0"/>
<feBlend mode="normal" in2="BackgroundImageFix" result="effect1_dropShadow_60_446"/>
<feBlend mode="normal" in="SourceGraphic" in2="effect1_dropShadow_60_446" result="shape"/>
</filter>
<radialGradient id="paint0_radial_60_446" cx="0" cy="0" r="1" gradientUnits="userSpaceOnUse" gradientTransform="translate(249.5 43.5) rotate(78.3552) scale(369.097 149.349)">
<stop stop-color="white"/>
<stop offset="1" stop-color="#FFD058"/>
</radialGradient>
<radialGradient id="paint1_radial_60_446" cx="0" cy="0" r="1" gradientUnits="userSpaceOnUse" gradientTransform="translate(249.5 43.5) rotate(78.3552) scale(369.097 149.349)">
<stop stop-color="white"/>
<stop offset="1" stop-color="#FFD058"/>
</radialGradient>
<radialGradient id="paint2_radial_60_446" cx="0" cy="0" r="1" gradientUnits="userSpaceOnUse" gradientTransform="translate(35.5 5.99999) rotate(72.5491) scale(423.491 199.255)">
<stop stop-color="#FFDC83" stop-opacity="0.19"/>
<stop offset="1" stop-color="#203C25"/>
</radialGradient>
<radialGradient id="paint3_radial_60_446" cx="0" cy="0" r="1" gradientUnits="userSpaceOnUse" gradientTransform="translate(35.5 5.99999) rotate(72.5491) scale(423.491 199.255)">
<stop stop-color="#FFDC83" stop-opacity="0.19"/>
<stop offset="1" stop-color="#203C25"/>
</radialGradient>
</defs>
</svg>
